<svg aria-hidden="true" style="position: absolute; width: 0; height: 0; overflow: hidden;" version="1.1" xmlns="http://www.w3.org/2000/svg" xmlns:xlink="http://www.w3.org/1999/xlink">
<defs>
<symbol id="icon-bag" viewBox="0 0 32 32">
<path fill="none" stroke="#fff" style="stroke: var(--color1, #fff)" stroke-linejoin="round" stroke-linecap="round" stroke-miterlimit="4" stroke-width="1.3913" d="M8.441 10.666h15.119c0.385-0 0.765 0.083 1.114 0.244s0.66 0.395 0.91 0.687c0.25 0.292 0.435 0.634 0.54 1.004s0.13 0.758 0.072 1.138l-1.673 10.869c-0.145 0.945-0.624 1.806-1.349 2.428s-1.65 0.964-2.605 0.964h-9.136c-0.955 0-1.879-0.342-2.604-0.964s-1.204-1.483-1.349-2.428l-1.673-10.869c-0.058-0.38-0.034-0.768 0.072-1.138s0.29-0.712 0.54-1.004c0.25-0.292 0.561-0.526 0.91-0.687s0.729-0.244 1.114-0.244z"></path>
<path fill="none" stroke="#fff" style="stroke: var(--color1, #fff)" stroke-linejoin="round" stroke-linecap="round" stroke-miterlimit="4" stroke-width="1.3913" d="M12 10.667v-2.667c0-1.061 0.421-2.078 1.172-2.828s1.768-1.172 2.828-1.172 2.078 0.421 2.828 1.172c0.75 0.75 1.172 1.768 1.172 2.828v2.667"></path>
</symbol>
<symbol id="icon-bag-black" viewBox="0 0 33 32">
<path fill="none" stroke="#fff" style="stroke: var(--color1, #000)" stroke-linejoin="round" stroke-linecap="round" stroke-miterlimit="4" stroke-width="1.3913" d="M9.7 10.666h15.119c0.385-0 0.765 0.083 1.114 0.244s0.66 0.395 0.91 0.687c0.25 0.292 0.435 0.634 0.54 1.004s0.13 0.758 0.072 1.138l-1.673 10.869c-0.145 0.945-0.624 1.806-1.349 2.428s-1.65 0.964-2.605 0.964h-9.136c-0.955 0-1.879-0.342-2.604-0.964s-1.204-1.483-1.349-2.428l-1.673-10.869c-0.058-0.38-0.034-0.768 0.072-1.138s0.29-0.712 0.54-1.004c0.25-0.292 0.561-0.526 0.91-0.687s0.729-0.244 1.114-0.244z"></path>
<path fill="none" stroke="#fff" style="stroke: var(--color1, #000)" stroke-linejoin="round" stroke-linecap="round" stroke-miterlimit="4" stroke-width="1.3913" d="M13.259 10.667v-2.667c0-1.061 0.421-2.078 1.172-2.828s1.768-1.172 2.828-1.172 2.078 0.421 2.828 1.172c0.75 0.75 1.172 1.768 1.172 2.828v2.667"></path>
</symbol>
<symbol id="icon-user" viewBox="0 0 32 32">
<path fill="none" stroke="#fff" style="stroke: var(--color1, #fff)" stroke-linejoin="round" stroke-linecap="round" stroke-miterlimit="4" stroke-width="1.28" d="M10.667 10.666c0 1.415 0.562 2.771 1.562 3.771s2.357 1.562 3.771 1.562 2.771-0.562 3.771-1.562c1-1 1.562-2.357 1.562-3.771s-0.562-2.771-1.562-3.771c-1-1-2.357-1.562-3.771-1.562s-2.771 0.562-3.771 1.562c-1 1-1.562 2.357-1.562 3.771z"></path>
<path fill="none" stroke="#fff" style="stroke: var(--color1, #fff)" stroke-linejoin="round" stroke-linecap="round" stroke-miterlimit="4" stroke-width="1.28" d="M8 28v-2.667c0-1.415 0.562-2.771 1.562-3.771s2.357-1.562 3.771-1.562h5.333c1.415 0 2.771 0.562 3.771 1.562s1.562 2.357 1.562 3.771v2.667"></path>
<path fill="none" stroke="#fff" style="stroke: var(--color1, #fff)" stroke-linejoin="miter" stroke-linecap="butt" stroke-miterlimit="4" stroke-width="1.28" d="M8 28h16.667"></path>
</symbol>
<symbol id="icon-user-black" viewBox="0 0 33 32">
<path fill="none" stroke="#fff" style="stroke: var(--color1, #000)" stroke-linejoin="round" stroke-linecap="round" stroke-miterlimit="4" stroke-width="1.28" d="M11.825 10.666c0 1.415 0.562 2.771 1.562 3.771s2.357 1.562 3.771 1.562c1.415 0 2.771-0.562 3.771-1.562s1.562-2.357 1.562-3.771-0.562-2.771-1.562-3.771c-1-1-2.357-1.562-3.771-1.562s-2.771 0.562-3.771 1.562c-1 1-1.562 2.357-1.562 3.771z"></path>
<path fill="none" stroke="#fff" style="stroke: var(--color1, #000)" stroke-linejoin="round" stroke-linecap="round" stroke-miterlimit="4" stroke-width="1.28" d="M9.158 28v-2.667c0-1.415 0.562-2.771 1.562-3.771s2.357-1.562 3.771-1.562h5.333c1.415 0 2.771 0.562 3.771 1.562s1.562 2.357 1.562 3.771v2.667"></path>
<path fill="none" stroke="#fff" style="stroke: var(--color1, #000)" stroke-linejoin="miter" stroke-linecap="butt" stroke-miterlimit="4" stroke-width="1.28" d="M9.158 28h16.667"></path>
</symbol>
<symbol id="icon-menu" viewBox="0 0 57 32">
<path fill="none" stroke="#fff" style="stroke: var(--color1, #fff)" stroke-linejoin="round" stroke-linecap="round" stroke-miterlimit="4" stroke-width="4.1739" d="M3.014 3.247h51.014"></path>
<path fill="none" stroke="#fff" style="stroke: var(--color1, #fff)" stroke-linejoin="round" stroke-linecap="round" stroke-miterlimit="4" stroke-width="4.1739" d="M3.014 28.753h51.014"></path>
</symbol>
<symbol id="icon-menu-black" viewBox="0 0 58 32">
<path fill="none" stroke="#fff" style="stroke: var(--color1, #000)" stroke-linejoin="round" stroke-linecap="round" stroke-miterlimit="4" stroke-width="4.1739" d="M3.017 3.247h51.061"></path>
<path fill="none" stroke="#fff" style="stroke: var(--color1, #000)" stroke-linejoin="round" stroke-linecap="round" stroke-miterlimit="4" stroke-width="4.1739" d="M3.017 28.753h51.061"></path>
</symbol>
<symbol id="icon-arrow-svg" viewBox="0 0 32 32">
<path d="M4.287 27.713c0.388 0.388 1.017 0.388 1.404 0l20.313-20.313v7.596c0 0.552 0.448 1 1 1s1-0.448 1-1v-10c0-0.265-0.103-0.521-0.291-0.709s-0.444-0.291-0.709-0.291h-10c-0.552 0-1 0.448-1 1s0.448 1 1 1h7.596l-20.313 20.313c-0.388 0.388-0.388 1.017 0 1.404z"></path>
</symbol>
<symbol id="icon-plus" viewBox="0 0 32 32">
<path d="M14.667 2.667v12h-12v2.667h12v12h2.667v-12h12v-2.667h-12v-12h-2.667z"></path>
</symbol>
<symbol id="icon-close_40px" viewBox="0 0 32 32">
<path d="M23.733 10.304l-1.504-1.504-5.963 5.963-5.963-5.963-1.504 1.504 5.963 5.963-5.963 5.963 1.504 1.504 5.963-5.963 5.963 5.963 1.504-1.504-5.963-5.963 5.963-5.963z"></path>
</symbol>
<symbol id="icon-frame" viewBox="0 0 430 32">
<path d="M0 0h429.714v32h-429.714v-32z"></path>
</symbol>
</symbol>
</defs>
</svg>
